<svg xmlns="http://www.w3.org/2000/svg" viewBox="0 0 211.45 74.03"><defs><style>.cls-1{fill:#006383;}.cls-2{fill:#687f80;}.cls-3{fill:#869ea4;}.cls-4{fill:#fff;}</style></defs><g id="Laag_2" data-name="Laag 2"><g id="Top"><g id="Logo"><rect class="cls-1" width="60" height="60"/><rect class="cls-2" x="0.63" y="65.64" width="0.69" height="8.17"/><path class="cls-2" d="M10,65.64h.52l4.27,4.89,1.64,1.86h0V65.64h.67V74H17l-4.67-5.31c-.53-.61-1.08-1.23-1.63-1.84h0v7H10Z"/><path class="cls-2" d="M25.27,69.74a4.29,4.29,0,0,1,4.5-4.32,4.38,4.38,0,0,1,4,2.17l-.48.31-.13,0A3.71,3.71,0,0,0,29.77,66a3.7,3.7,0,1,0-.05,7.39,3.39,3.39,0,0,0,3.49-2.5v-.68H30.38v-.56h3.45v4.13h-.65v-.55a10,10,0,0,1,.06-1h0A4.14,4.14,0,0,1,29.73,74a4.25,4.25,0,0,1-4.46-4.29"/><polygon class="cls-2" points="47.18 65.64 47.25 66.24 43.04 66.24 43.04 69.32 46.96 69.32 46.96 69.92 43.04 69.92 43.04 73.21 47.25 73.21 47.18 73.81 42.36 73.81 42.36 65.64 47.18 65.64"/><path class="cls-2" d="M55.53,65.64h.53l4.27,4.89L62,72.39h0V65.64h.67V74h-.13l-4.67-5.31-1.64-1.84h0v7h-.68Z"/><rect class="cls-2" x="71.36" y="65.64" width="0.69" height="8.17"/><polygon class="cls-2" points="85.56 65.64 85.63 66.24 81.42 66.24 81.42 69.32 85.34 69.32 85.34 69.92 81.42 69.92 81.42 73.21 85.63 73.21 85.56 73.81 80.74 73.81 80.74 65.64 85.56 65.64"/><path class="cls-2" d="M93.83,70.61v-5h.69v4.92c0,1.93.86,2.86,2.65,2.86s2.67-.93,2.67-2.88v-4.9h.68v5c0,2.23-1.15,3.43-3.35,3.43s-3.34-1.15-3.34-3.42"/><path class="cls-2" d="M111.33,69.62c1.54,0,2.24-.59,2.24-1.68s-.76-1.71-2.34-1.71h-1.42v3.39ZM115,73.68l-.07.13h-.68l-2.71-3.6h-1.77v3.6h-.69V65.65h2.27c1.87,0,2.86.77,2.86,2.29a2.13,2.13,0,0,1-1.93,2.18Z"/><path class="cls-2" d="M122,72.29l.52-.33.13,0a2.41,2.41,0,0,0,2.26,1.45,1.76,1.76,0,0,0,1.93-1.6c0-.86-.46-1.38-2.22-2.1s-2.31-1.36-2.31-2.39,1-1.93,2.46-1.93a2.6,2.6,0,0,1,2.43,1.31l-.49.31-.13,0a2,2,0,0,0-1.84-1c-1,0-1.72.58-1.72,1.33s.41,1.15,2.08,1.89c1.93.84,2.45,1.5,2.45,2.63A2.38,2.38,0,0,1,124.9,74,3.05,3.05,0,0,1,122,72.29"/><path class="cls-2" d="M137.63,73.22c1.88,0,2.67-.53,2.67-1.68s-.84-1.68-2.47-1.68h-1.55v3.36Zm.14-3.9c1.32,0,2.12-.6,2.12-1.59s-.74-1.5-2.28-1.5h-1.33v3.09Zm-2.18-3.68h2c2,0,2.94.72,2.94,2.07A1.84,1.84,0,0,1,139,69.49v0a2,2,0,0,1,2,2c0,1.52-1.05,2.27-3.37,2.27h-2Z"/><path class="cls-2" d="M148.93,70.61v-5h.68v4.92c0,1.93.87,2.86,2.66,2.86s2.67-.93,2.67-2.88v-4.9h.68v5c0,2.23-1.15,3.43-3.35,3.43s-3.34-1.15-3.34-3.42"/><path class="cls-2" d="M166.42,69.62c1.54,0,2.24-.59,2.24-1.68s-.76-1.71-2.33-1.71H164.9v3.39Zm3.71,4.06-.06.13h-.69l-2.7-3.6H164.9v3.6h-.68V65.65h2.26c1.88,0,2.87.77,2.87,2.29a2.14,2.14,0,0,1-1.94,2.18Z"/><polygon class="cls-2" points="182.5 65.64 182.57 66.24 178.36 66.24 178.36 69.32 182.28 69.32 182.28 69.92 178.36 69.92 178.36 73.21 182.57 73.21 182.5 73.81 177.68 73.81 177.68 65.64 182.5 65.64"/><path class="cls-2" d="M195.5,71l-1.2-2.72c-.29-.62-.53-1.18-.78-1.73h0c-.23.55-.49,1.13-.75,1.73L191.55,71Zm.25.57h-4.44l-1,2.28h-.75l3.73-8.18h.49l3.72,8.18h-.74Z"/><path class="cls-2" d="M204.76,70.58v-5h.68v4.92c0,1.93.87,2.86,2.66,2.86s2.67-.93,2.67-2.88v-4.9h.68v5c0,2.23-1.15,3.43-3.35,3.43s-3.34-1.15-3.34-3.42"/><path class="cls-1" d="M106.22,56c7.4,0,10.64-3.07,10.64-9.63,0-6.15-2.89-9.29-10.6-9.29h-3.39V56ZM98,33h9.16C118,33,122,38.11,122,46.18,122,54.63,117.17,60,107.08,60H98Z"/><polygon class="cls-1" points="139.58 60 135.23 60 125 33 130.4 33 137.69 53.19 145.13 33 150 33 139.58 60"/><polygon class="cls-1" points="141.73 29 137.03 29 126 0 131.82 0 139.68 21.68 147.7 0 152.96 0 141.73 29"/><rect class="cls-1" x="156" y="33" width="5" height="27"/><path class="cls-1" d="M192.64,58.31,192,53.82a19.36,19.36,0,0,0,8.73,2.27c3.62,0,5.4-1.55,5.4-3.81,0-1.54-.72-2.58-4.16-3.7l-1.51-.46c-5.14-1.69-7.51-3.41-7.51-7.62,0-4.88,3.39-7.5,9.17-7.5a17.08,17.08,0,0,1,7,1.44l.64,4.27A17.47,17.47,0,0,0,202.43,37c-3.21,0-4.65,1.32-4.65,3.3s1,2.84,4.72,4l1.32.47c5.48,1.76,7.18,3.8,7.18,7.36C211,57,207.15,60,200.61,60a17.4,17.4,0,0,1-8-1.69"/><path class="cls-1" d="M93,60,81.92,33h-4.6L68.88,55.1h0L67,60ZM75.2,51.19,79.53,39.3l3.32,8.47,1.34,3.42h0l1.32,3.43.06.16h0l.13.32H73.81l1.41-3.91Z"/><path class="cls-1" d="M88.12,14.23H93V25.39a17.73,17.73,0,0,1-11,3.56C73.4,29,67,22.91,67,14.55S73.4.15,82.16.15c4.68,0,8.6,1.56,11.24,4.56l-3.28,3.2a10.39,10.39,0,0,0-7.72-3.2c-6,0-10.16,4-10.16,9.84s4.2,9.84,10.12,9.84A11.31,11.31,0,0,0,88.12,23Z"/><polygon class="cls-1" points="180 24.48 180 29 159 29 159 0 179.44 0 179.44 4.52 164.2 4.52 164.2 12.06 177.72 12.06 177.72 16.49 164.2 16.49 164.2 24.48 180 24.48"/><polygon class="cls-1" points="120 24.48 120 29 99 29 99 0 119 0 119 4.52 104.2 4.52 104.2 12.06 117.72 12.06 117.72 16.49 104.2 16.49 104.2 24.48 120 24.48"/><polygon class="cls-1" points="190 0 195.24 0 195.24 24.44 210 24.44 210 29 190 29 190 0"/><polygon class="cls-3" points="44.55 33.88 30.13 33.88 26.55 40.04 41.63 40.04 43.56 43.91 9.69 43.91 5.61 50.82 30.08 50.82 54.54 50.82 44.55 33.88"/><polygon class="cls-4" points="18.64 40.64 30.08 20.95 36.11 31.05 42.89 31.05 42.31 30.08 30.08 9.34 17.84 30.08 11.61 40.64 18.64 40.64"/><polygon class="cls-1" points="187 55.8 187 60 169 60 169 33 186.52 33 186.52 37.2 173.46 37.2 173.46 44.22 185.05 44.22 185.05 48.35 173.46 48.35 173.46 55.8 187 55.8"/></g></g></g></svg>